<svg version="1.1" viewBox="0.0 0.0 1134.0 308.0" fill="none" stroke="none" stroke-linecap="square" stroke-miterlimit="10" xmlns:xlink="http://www.w3.org/1999/xlink" xmlns="http://www.w3.org/2000/svg"><clipPath id="p.0"><path d="m0 0l1134.0 0l0 308.0l-1134.0 0l0 -308.0z" clip-rule="nonzero"/></clipPath><g clip-path="url(#p.0)"><path fill="#000000" fill-opacity="0.0" d="m0 0l1134.0 0l0 308.0l-1134.0 0z" fill-rule="evenodd"/><path fill="#000000" fill-opacity="0.0" d="m261.7244 18.622047l1116.2834 0l0 297.7008l-1116.2834 0z" fill-rule="evenodd"/><path fill="#38761d" d="m292.56815 131.15141l27.96875 0l0 16.65625q5.453125 -8.53125 14.734375 -13.875q9.28125 -5.34375 20.609375 -5.34375q19.75 0 33.515625 15.484375q13.78125 15.484375 13.78125 43.140625q0 28.390625 -13.890625 44.140625q-13.875 15.75 -33.625 15.75q-9.390625 0 -17.03125 -3.734375q-7.625 -3.734375 -16.0625 -12.8125l0 57.124985l-30.0 0l0 -156.53123zm29.671875 54.78125q0 19.109375 7.578125 28.234375q7.59375 9.125 18.484375 9.125q10.453125 0 17.390625 -8.375q6.953125 -8.390625 6.953125 -27.5q0 -17.828125 -7.15625 -26.46875q-7.15625 -8.65625 -17.734375 -8.65625q-10.984375 0 -18.25 8.5q-7.265625 8.484375 -7.265625 25.140625zm170.40768 22.515625l29.890625 5.03125q-5.765625 16.4375 -18.203125 25.03125q-12.4375 8.59375 -31.125 8.59375q-29.578125 0 -43.765625 -19.328125q-11.21875 -15.484375 -11.21875 -39.078125q0 -28.1875 14.734375 -44.140625q14.734375 -15.96875 37.265625 -15.96875q25.296875 0 39.921875 16.71875q14.625 16.703125 13.984375 51.1875l-75.15625 0q0.328125 13.34375 7.265625 20.765625q6.9375 7.421875 17.296875 7.421875q7.046875 0 11.84375 -3.84375q4.8125 -3.84375 7.265625 -12.390625zm1.703125 -30.3125q-0.3125 -13.03125 -6.71875 -19.8125q-6.40625 -6.78125 -15.59375 -6.78125q-9.828125 0 -16.234375 7.15625q-6.40625 7.15625 -6.296875 19.4375l44.84375 0zm157.37183 66.40625l-30.0 0l0 -57.859375q0 -18.375 -1.921875 -23.765625q-1.921875 -5.390625 -6.25 -8.375q-4.3125 -3.0 -10.40625 -3.0q-7.796875 0 -13.984375 4.28125q-6.1875 4.265625 -8.484375 11.3125q-2.296875 7.046875 -2.296875 26.046875l0 51.359375l-30.0 0l0 -113.390625l27.859375 0l0 16.65625q14.84375 -19.21875 37.375 -19.21875q9.921875 0 18.140625 3.578125q8.234375 3.578125 12.4375 9.140625q4.21875 5.546875 5.875 12.59375q1.65625 7.046875 1.65625 20.171875l0 70.46875zm30.423279 -156.51562l31.609375 0l0 84.76562q0 20.1875 1.171875 26.15625q2.03125 9.609375 9.65625 15.4375q7.640625 5.8125 20.875 5.8125q13.453125 0 20.28125 -5.5q6.84375 -5.5 8.234375 -13.5q1.390625 -8.015625 1.390625 -26.59375l0 -86.57812l31.59375 0l0 82.20312q0 28.1875 -2.5625 39.828125q-2.5625 11.640625 -9.453125 19.65625q-6.875 8.0 -18.40625 12.75q-11.53125 4.75 -30.109375 4.75q-22.421875 0 -34.015625 -5.171875q-11.578125 -5.1875 -18.3125 -13.453125q-6.71875 -8.28125 -8.84375 -17.359375q-3.109375 -13.453125 -3.109375 -39.71875l0 -83.48437zm150.1253 105.59374l30.75 -3.0q2.765625 15.484375 11.25 22.75q8.5 7.25 22.90625 7.25q15.265625 0 23.0 -6.453125q7.75 -6.453125 7.75 -15.109375q0 -5.546875 -3.265625 -9.4375q-3.25 -3.90625 -11.359375 -6.78125q-5.546875 -1.921875 -25.3125 -6.84375q-25.40625 -6.296875 -35.65625 -15.484375q-14.40625 -12.90625 -14.40625 -31.484375q0 -11.968742 6.78125 -22.374992q6.78125 -10.40625 19.53125 -15.84375q12.765625 -5.453125 30.796875 -5.453125q29.46875 0 44.359375 12.921875q14.90625 12.921875 15.65625 34.484367l-31.609375 1.390625q-2.03125 -12.062492 -8.703125 -17.343742q-6.671875 -5.296875 -20.015625 -5.296875q-13.78125 0 -21.5625 5.65625q-5.015625 3.640625 -5.015625 9.71875q0 5.5468674 4.6875 9.499992q5.984375 5.015625 29.046875 10.46875q23.0625 5.4375 34.109375 11.265625q11.046875 5.8125 17.296875 15.90625q6.25 10.09375 6.25 24.921875q0 13.453125 -7.484375 25.203125q-7.46875 11.75 -21.140625 17.46875q-13.65625 5.703125 -34.046875 5.703125q-29.6875 0 -45.59375 -13.71875q-15.90625 -13.71875 -19.0 -39.984375zm153.84204 50.921875l0 -156.51562l50.71875 0q28.828125 0 37.578125 2.34375q13.453125 3.53125 22.53125 15.328125q9.078125 11.796875 9.078125 30.468742q0 14.421875 -5.234375 24.25q-5.234375 9.8125 -13.296875 15.421875q-8.0625 5.609375 -16.390625 7.421875q-11.3125 2.234375 -32.78125 2.234375l-20.59375 0l0 59.046875l-31.609375 0zm31.609375 -130.04688l0 44.421867l17.296875 0q18.671875 0 24.96875 -2.453125q6.3125 -2.453125 9.890625 -7.6875q3.578125 -5.234375 3.578125 -12.171875q0 -8.546875 -5.03125 -14.093742q-5.015625 -5.546875 -12.703125 -6.9375q-5.65625 -1.078125 -22.734375 -1.078125l-15.265625 0z" fill-rule="nonzero"/><g filter="url(#shadowFilter-p.1)"><use xlink:href="#p.1" transform="matrix(1.0 0.0 0.0 1.0 -11.276311286089237 -4.104241732283478)"/></g><defs><filter id="shadowFilter-p.1" filterUnits="userSpaceOnUse"><feGaussianBlur in="SourceAlpha" stdDeviation="5.5" result="blur"/><feComponentTransfer in="blur" color-interpolation-filters="sRGB"><feFuncR type="linear" slope="0" intercept="0.0"/><feFuncG type="linear" slope="0" intercept="0.0"/><feFuncB type="linear" slope="0" intercept="0.0"/><feFuncA type="linear" slope="0.74" intercept="0"/></feComponentTransfer></filter></defs><g id="p.1"><path fill="#980000" d="m209.09889 32.59487l0 0c49.857803 29.670574 73.546616 88.85701 57.820114 144.46341c-15.726517 55.60643 -66.9713 93.853516 -125.07927 93.35425c-58.107994 -0.49926758 -108.67998 -39.621155 -123.43712 -95.48947c-14.757139 -55.86834 9.957405 -114.63889 60.323746 -143.44835l28.68972 49.557697c-28.027367 15.87719 -41.8171 48.36782 -33.647354 79.27808c8.169739 30.910263 36.270798 52.566605 68.567406 52.842102c32.2966 0.27549744 60.771027 -20.89824 69.478424 -51.664536c8.707397 -30.766296 -4.5138702 -63.487343 -32.26027 -79.840294z" fill-rule="evenodd"/><path stroke="#000000" stroke-width="1.0" stroke-linejoin="round" stroke-linecap="butt" d="m209.09889 32.59487l0 0c49.857803 29.670574 73.546616 88.85701 57.820114 144.46341c-15.726517 55.60643 -66.9713 93.853516 -125.07927 93.35425c-58.107994 -0.49926758 -108.67998 -39.621155 -123.43712 -95.48947c-14.757139 -55.86834 9.957405 -114.63889 60.323746 -143.44835l28.68972 49.557697c-28.027367 15.87719 -41.8171 48.36782 -33.647354 79.27808c8.169739 30.910263 36.270798 52.566605 68.567406 52.842102c32.2966 0.27549744 60.771027 -20.89824 69.478424 -51.664536c8.707397 -30.766296 -4.5138702 -63.487343 -32.26027 -79.840294z" fill-rule="evenodd"/></g></g></svg>