<svg version="1.1" viewBox="0.0 0.0 512.0 512.0" fill="none" stroke="none" stroke-linecap="square" stroke-miterlimit="10" xmlns:xlink="http://www.w3.org/1999/xlink" xmlns="http://www.w3.org/2000/svg"><clipPath id="p.0"><path d="m0 0l512.0 0l0 512.0l-512.0 0l0 -512.0z" clip-rule="nonzero"/></clipPath><g clip-path="url(#p.0)"><path fill="#000000" fill-opacity="0.0" d="m0 0l512.0 0l0 512.0l-512.0 0z" fill-rule="evenodd"/><g filter="url(#shadowFilter-p.1)"><use xlink:href="#p.1" transform="matrix(1.0 0.0 0.0 1.0 -11.276311286089237 -4.10424173228344)"/></g><defs><filter id="shadowFilter-p.1" filterUnits="userSpaceOnUse"><feGaussianBlur in="SourceAlpha" stdDeviation="5.5" result="blur"/><feComponentTransfer in="blur" color-interpolation-filters="sRGB"><feFuncR type="linear" slope="0" intercept="0.0"/><feFuncG type="linear" slope="0" intercept="0.0"/><feFuncB type="linear" slope="0" intercept="0.0"/><feFuncA type="linear" slope="0.74" intercept="0"/></feComponentTransfer></filter></defs><g id="p.1"><path fill="#980000" d="m377.0386 44.52033l0 0c96.004456 51.73479 142.95084 158.27487 114.21063 259.1897c-28.740173 100.914795 -125.91257 170.73233 -236.40004 169.85138c-110.48747 -0.8809509 -206.40175 -72.237976 -233.33936 -173.59674c-26.937601 -101.358734 21.90084 -207.1351 118.81369 -257.33173l51.530014 89.0113l0 0c-56.858124 27.03006 -86.139366 85.64282 -71.036125 142.19423c15.103249 56.55139 70.7194 96.54498 134.92447 97.0242c64.20505 0.47921753 120.54065 -38.678772 136.66977 -94.99704c16.12915 -56.3183 -12.082703 -115.36018 -68.44177 -143.23529z" fill-rule="evenodd"/><path stroke="#000000" stroke-width="1.0" stroke-linejoin="round" stroke-linecap="butt" d="m377.0386 44.52033l0 0c96.004456 51.73479 142.95084 158.27487 114.21063 259.1897c-28.740173 100.914795 -125.91257 170.73233 -236.40004 169.85138c-110.48747 -0.8809509 -206.40175 -72.237976 -233.33936 -173.59674c-26.937601 -101.358734 21.90084 -207.1351 118.81369 -257.33173l51.530014 89.0113l0 0c-56.858124 27.03006 -86.139366 85.64282 -71.036125 142.19423c15.103249 56.55139 70.7194 96.54498 134.92447 97.0242c64.20505 0.47921753 120.54065 -38.678772 136.66977 -94.99704c16.12915 -56.3183 -12.082703 -115.36018 -68.44177 -143.23529z" fill-rule="evenodd"/></g><path fill="#000000" fill-opacity="0.0" d="m150.0 213.98425l212.0 0l0 69.480316l-212.0 0z" fill-rule="evenodd"/><path fill="#000000" fill-opacity="0.0" d="m160.70111 225.25099l190.59778 0l0 47.5233l-190.59778 0l0 -47.5233z" fill-rule="nonzero"/><path fill="#000000" d="m162.49799 248.05487q0 -4.515625 1.34375 -7.59375q1.015625 -2.25 2.75 -4.046875q1.75 -1.796875 3.84375 -2.671875q2.75 -1.171875 6.375 -1.171875q6.53125 0 10.453125 4.0625q3.921875 4.0625 3.921875 11.28125q0 7.15625 -3.890625 11.203125q-3.890625 4.046875 -10.40625 4.046875q-6.609375 0 -10.5 -4.015625q-3.890625 -4.03125 -3.890625 -11.09375zm6.15625 -0.203125q0 5.03125 2.3125 7.625q2.328125 2.59375 5.890625 2.59375q3.578125 0 5.859375 -2.578125q2.296875 -2.578125 2.296875 -7.71875q0 -5.09375 -2.234375 -7.59375q-2.21875 -2.5 -5.921875 -2.5q-3.6875 0 -5.953125 2.53125q-2.25 2.53125 -2.25 7.640625zm27.005737 -6.625l5.28125 0l0 3.15625q1.03125 -1.609375 2.78125 -2.625q1.75 -1.015625 3.890625 -1.015625q3.734375 0 6.34375 2.9375q2.609375 2.921875 2.609375 8.140625q0 5.375 -2.625 8.359375q-2.625 2.96875 -6.359375 2.96875q-1.78125 0 -3.234375 -0.703125q-1.4375 -0.703125 -3.03125 -2.421875l0 10.796875l-5.65625 0l0 -29.59375zm5.609375 10.359375q0 3.609375 1.421875 5.34375q1.4375 1.71875 3.5 1.71875q1.96875 0 3.28125 -1.578125q1.3125 -1.59375 1.3125 -5.203125q0 -3.375 -1.359375 -5.0q-1.34375 -1.640625 -3.34375 -1.640625q-2.078125 0 -3.453125 1.609375q-1.359375 1.59375 -1.359375 4.75zm32.197998 4.25l5.65625 0.953125q-1.09375 3.109375 -3.453125 4.734375q-2.34375 1.625 -5.875 1.625q-5.59375 0 -8.265625 -3.65625q-2.125 -2.921875 -2.125 -7.375q0 -5.328125 2.78125 -8.34375q2.78125 -3.03125 7.046875 -3.03125q4.78125 0 7.546875 3.171875q2.765625 3.15625 2.640625 9.671875l-14.203125 0q0.0625 2.515625 1.375 3.921875q1.3125 1.40625 3.265625 1.40625q1.328125 0 2.234375 -0.71875q0.90625 -0.734375 1.375 -2.359375zm0.328125 -5.71875q-0.0625 -2.46875 -1.28125 -3.75q-1.203125 -1.28125 -2.9375 -1.28125q-1.859375 0 -3.0625 1.359375q-1.21875 1.34375 -1.203125 3.671875l8.484375 0zm29.734741 12.546875l-5.65625 0l0 -10.9375q0 -3.46875 -0.375 -4.484375q-0.359375 -1.03125 -1.1875 -1.59375q-0.8125 -0.5625 -1.953125 -0.5625q-1.46875 0 -2.640625 0.8125q-1.171875 0.796875 -1.609375 2.140625q-0.4375 1.328125 -0.4375 4.921875l0 9.703125l-5.671875 0l0 -21.4375l5.265625 0l0 3.15625q2.8125 -3.640625 7.0625 -3.640625q1.875 0 3.421875 0.6875q1.5625 0.671875 2.359375 1.71875q0.796875 1.046875 1.109375 2.390625q0.3125 1.328125 0.3125 3.8125l0 13.3125zm5.760498 -29.578125l5.96875 0l0 16.015625q0 3.8125 0.21875 4.953125q0.390625 1.8125 1.828125 2.921875q1.453125 1.09375 3.953125 1.09375q2.53125 0 3.828125 -1.03125q1.296875 -1.046875 1.546875 -2.5625q0.265625 -1.515625 0.265625 -5.03125l0 -16.359375l5.984375 0l0 15.53125q0 5.328125 -0.484375 7.53125q-0.484375 2.203125 -1.796875 3.71875q-1.296875 1.5 -3.484375 2.40625q-2.171875 0.890625 -5.6875 0.890625q-4.234375 0 -6.421875 -0.96875q-2.1875 -0.984375 -3.46875 -2.546875q-1.265625 -1.5625 -1.671875 -3.28125q-0.578125 -2.546875 -0.578125 -7.5l0 -15.78125zm28.377106 19.953125l5.8125 -0.5625q0.515625 2.921875 2.109375 4.296875q1.609375 1.375 4.34375 1.375q2.875 0 4.34375 -1.21875q1.46875 -1.234375 1.46875 -2.859375q0 -1.046875 -0.625 -1.78125q-0.609375 -0.75 -2.140625 -1.28125q-1.046875 -0.375 -4.78125 -1.296875q-4.8125 -1.1875 -6.75 -2.921875q-2.71875 -2.453125 -2.71875 -5.953125q0 -2.265625 1.28125 -4.234375q1.28125 -1.96875 3.6875 -3.0q2.421875 -1.03125 5.828125 -1.03125q5.5625 0 8.375 2.453125q2.828125 2.4375 2.96875 6.515625l-5.96875 0.265625q-0.390625 -2.28125 -1.65625 -3.28125q-1.25 -1.0 -3.78125 -1.0q-2.609375 0 -4.078125 1.0625q-0.9375 0.6875 -0.9375 1.84375q0 1.046875 0.875 1.796875q1.140625 0.9375 5.5 1.96875q4.359375 1.03125 6.4375 2.140625q2.09375 1.09375 3.265625 3.0q1.1875 1.90625 1.1875 4.71875q0 2.53125 -1.421875 4.75q-1.40625 2.21875 -3.984375 3.3125q-2.578125 1.078125 -6.4375 1.078125q-5.609375 0 -8.625 -2.59375q-3.0 -2.59375 -3.578125 -7.5625zm29.065521 9.625l0 -29.578125l9.59375 0q5.453125 0 7.109375 0.4375q2.53125 0.671875 4.25 2.90625q1.71875 2.21875 1.71875 5.75q0 2.71875 -1.0 4.578125q-0.984375 1.859375 -2.515625 2.921875q-1.515625 1.0625 -3.09375 1.40625q-2.125 0.421875 -6.1875 0.421875l-3.890625 0l0 11.15625l-5.984375 0zm5.984375 -24.578125l0 8.390625l3.265625 0q3.53125 0 4.71875 -0.453125q1.1875 -0.46875 1.859375 -1.453125q0.6875 -1.0 0.6875 -2.3125q0 -1.609375 -0.953125 -2.65625q-0.953125 -1.046875 -2.40625 -1.3125q-1.0625 -0.203125 -4.296875 -0.203125l-2.875 0z" fill-rule="nonzero"/><path fill="#000000" fill-opacity="0.0" d="m351.2989 225.25099l0 0l0 47.5233l0 0l0 -47.5233z" fill-rule="nonzero"/><path fill="#000000" d="m160.70111 265.35092l190.59778 0l0 3.7200012l-190.59778 0l0 -3.7200012z" fill-rule="nonzero"/><path fill="#000000" fill-opacity="0.0" d="m157.44357 281.4147l195.87402 0l0 33.921265l-195.87402 0z" fill-rule="evenodd"/><path fill="#000000" d="m166.9592 297.6847q0 -1.3125 0.40625 -2.203125q0.28125 -0.65625 0.78125 -1.171875q0.515625 -0.515625 1.125 -0.765625q0.796875 -0.34375 1.84375 -0.34375q1.90625 0 3.046875 1.1875q1.140625 1.171875 1.140625 3.265625q0 2.078125 -1.140625 3.25q-1.125 1.171875 -3.015625 1.171875q-1.921875 0 -3.0625 -1.15625q-1.125 -1.171875 -1.125 -3.234375zm1.796875 -0.046875q0 1.453125 0.671875 2.203125q0.671875 0.75 1.703125 0.75q1.046875 0 1.703125 -0.734375q0.671875 -0.75 0.671875 -2.25q0 -1.46875 -0.65625 -2.1875q-0.640625 -0.734375 -1.71875 -0.734375q-1.0625 0 -1.71875 0.734375q-0.65625 0.734375 -0.65625 2.21875zm7.8339844 -1.921875l1.53125 0l0 0.90625q0.3125 -0.46875 0.8125 -0.75q0.515625 -0.296875 1.140625 -0.296875q1.078125 0 1.828125 0.84375q0.765625 0.84375 0.765625 2.375q0 1.546875 -0.765625 2.421875q-0.765625 0.859375 -1.84375 0.859375q-0.515625 0 -0.9375 -0.203125q-0.421875 -0.203125 -0.875 -0.703125l0 3.140625l-1.65625 0l0 -8.59375zm1.625 3.0q0 1.046875 0.421875 1.546875q0.421875 0.5 1.015625 0.5q0.578125 0 0.953125 -0.453125q0.375 -0.46875 0.375 -1.515625q0 -0.96875 -0.390625 -1.4375q-0.390625 -0.484375 -0.96875 -0.484375q-0.609375 0 -1.015625 0.46875q-0.390625 0.46875 -0.390625 1.375zm9.361328 1.234375l1.640625 0.28125q-0.3125 0.90625 -1.0 1.375q-0.6875 0.46875 -1.703125 0.46875q-1.625 0 -2.40625 -1.0625q-0.625 -0.84375 -0.625 -2.140625q0 -1.546875 0.8125 -2.421875q0.8125 -0.875 2.046875 -0.875q1.390625 0 2.1875 0.921875q0.8125 0.90625 0.765625 2.796875l-4.125 0q0.03125 0.734375 0.40625 1.140625q0.375 0.40625 0.953125 0.40625q0.375 0 0.640625 -0.203125q0.265625 -0.21875 0.40625 -0.6875zm0.09375 -1.65625q-0.015625 -0.71875 -0.375 -1.09375q-0.34375 -0.375 -0.859375 -0.375q-0.53125 0 -0.890625 0.390625q-0.34375 0.40625 -0.34375 1.078125l2.46875 0zm8.626953 3.640625l-1.640625 0l0 -3.171875q0 -1.015625 -0.109375 -1.3125q-0.09375 -0.296875 -0.34375 -0.453125q-0.234375 -0.171875 -0.5625 -0.171875q-0.4375 0 -0.78125 0.234375q-0.328125 0.234375 -0.453125 0.625q-0.125 0.390625 -0.125 1.4375l0 2.8125l-1.65625 0l0 -6.21875l1.53125 0l0 0.90625q0.8125 -1.046875 2.0625 -1.046875q0.53125 0 0.984375 0.203125q0.453125 0.1875 0.6875 0.5q0.234375 0.296875 0.3125 0.6875q0.09375 0.375 0.09375 1.09375l0 3.875zm5.0078125 -8.59375l1.734375 0l0 4.65625q0 1.109375 0.0625 1.4375q0.109375 0.53125 0.53125 0.84375q0.421875 0.3125 1.15625 0.3125q0.734375 0 1.109375 -0.296875q0.375 -0.296875 0.453125 -0.734375q0.078125 -0.4375 0.078125 -1.46875l0 -4.75l1.734375 0l0 4.515625q0 1.546875 -0.140625 2.1875q-0.140625 0.640625 -0.53125 1.078125q-0.375 0.4375 -1.015625 0.703125q-0.625 0.25 -1.640625 0.25q-1.234375 0 -1.875 -0.28125q-0.625 -0.28125 -1.0 -0.734375q-0.359375 -0.453125 -0.484375 -0.953125q-0.171875 -0.734375 -0.171875 -2.1875l0 -4.578125zm8.087891 6.8125l1.65625 -0.25q0.109375 0.484375 0.421875 0.734375q0.328125 0.25 0.90625 0.25q0.640625 0 0.953125 -0.234375q0.21875 -0.171875 0.21875 -0.4375q0 -0.1875 -0.109375 -0.3125q-0.125 -0.125 -0.546875 -0.21875q-2.0 -0.4375 -2.53125 -0.796875q-0.734375 -0.515625 -0.734375 -1.40625q0 -0.8125 0.625 -1.359375q0.640625 -0.546875 1.984375 -0.546875q1.28125 0 1.90625 0.421875q0.625 0.40625 0.859375 1.21875l-1.5625 0.28125q-0.09375 -0.359375 -0.375 -0.546875q-0.28125 -0.203125 -0.796875 -0.203125q-0.640625 0 -0.921875 0.1875q-0.1875 0.125 -0.1875 0.328125q0 0.1875 0.15625 0.3125q0.21875 0.15625 1.53125 0.453125q1.328125 0.296875 1.84375 0.734375q0.515625 0.4375 0.515625 1.21875q0 0.859375 -0.71875 1.484375q-0.703125 0.609375 -2.109375 0.609375q-1.265625 0 -2.015625 -0.515625q-0.734375 -0.515625 -0.96875 -1.40625zm10.861328 -0.203125l1.640625 0.28125q-0.3125 0.90625 -1.0 1.375q-0.6875 0.46875 -1.703125 0.46875q-1.625 0 -2.40625 -1.0625q-0.625 -0.84375 -0.625 -2.140625q0 -1.546875 0.8125 -2.421875q0.8125 -0.875 2.046875 -0.875q1.390625 0 2.1875 0.921875q0.8125 0.90625 0.765625 2.796875l-4.125 0q0.03125 0.734375 0.40625 1.140625q0.375 0.40625 0.953125 0.40625q0.375 0 0.640625 -0.203125q0.265625 -0.21875 0.40625 -0.6875zm0.09375 -1.65625q-0.015625 -0.71875 -0.375 -1.09375q-0.34375 -0.375 -0.859375 -0.375q-0.53125 0 -0.890625 0.390625q-0.34375 0.40625 -0.34375 1.078125l2.46875 0zm4.548828 3.640625l-1.640625 0l0 -6.21875l1.53125 0l0 0.875q0.390625 -0.625 0.703125 -0.8125q0.3125 -0.203125 0.703125 -0.203125q0.5625 0 1.09375 0.3125l-0.515625 1.421875q-0.421875 -0.265625 -0.765625 -0.265625q-0.359375 0 -0.59375 0.203125q-0.234375 0.1875 -0.375 0.6875q-0.140625 0.484375 -0.140625 2.078125l0 1.921875zm6.0039062 -2.796875l1.6875 -0.15625q0.15625 0.84375 0.609375 1.25q0.46875 0.390625 1.265625 0.390625q0.828125 0 1.25 -0.34375q0.4375 -0.359375 0.4375 -0.84375q0 -0.296875 -0.1875 -0.515625q-0.171875 -0.21875 -0.625 -0.375q-0.296875 -0.109375 -1.375 -0.375q-1.40625 -0.34375 -1.96875 -0.84375q-0.78125 -0.71875 -0.78125 -1.734375q0 -0.65625 0.359375 -1.21875q0.375 -0.578125 1.078125 -0.875q0.703125 -0.296875 1.6875 -0.296875q1.625 0 2.4375 0.71875q0.8125 0.703125 0.859375 1.875l-1.734375 0.078125q-0.109375 -0.65625 -0.484375 -0.9375q-0.359375 -0.296875 -1.09375 -0.296875q-0.75 0 -1.1875 0.3125q-0.265625 0.1875 -0.265625 0.53125q0 0.296875 0.25 0.515625q0.328125 0.28125 1.59375 0.578125q1.265625 0.296875 1.875 0.625q0.609375 0.3125 0.953125 0.875q0.34375 0.546875 0.34375 1.359375q0 0.734375 -0.421875 1.390625q-0.40625 0.640625 -1.15625 0.953125q-0.75 0.3125 -1.859375 0.3125q-1.640625 0 -2.515625 -0.75q-0.859375 -0.765625 -1.03125 -2.203125zm12.035156 0.8125l1.640625 0.28125q-0.3125 0.90625 -1.0 1.375q-0.6875 0.46875 -1.703125 0.46875q-1.625 0 -2.40625 -1.0625q-0.625 -0.84375 -0.625 -2.140625q0 -1.546875 0.8125 -2.421875q0.8125 -0.875 2.046875 -0.875q1.390625 0 2.1875 0.921875q0.8125 0.90625 0.765625 2.796875l-4.125 0q0.03125 0.734375 0.40625 1.140625q0.375 0.40625 0.953125 0.40625q0.375 0 0.640625 -0.203125q0.265625 -0.21875 0.40625 -0.6875zm0.09375 -1.65625q-0.015625 -0.71875 -0.375 -1.09375q-0.34375 -0.375 -0.859375 -0.375q-0.53125 0 -0.890625 0.390625q-0.34375 0.40625 -0.34375 1.078125l2.46875 0zm4.548828 3.640625l-1.640625 0l0 -6.21875l1.53125 0l0 0.875q0.390625 -0.625 0.703125 -0.8125q0.3125 -0.203125 0.703125 -0.203125q0.5625 0 1.09375 0.3125l-0.515625 1.421875q-0.421875 -0.265625 -0.765625 -0.265625q-0.359375 0 -0.59375 0.203125q-0.234375 0.1875 -0.375 0.6875q-0.140625 0.484375 -0.140625 2.078125l0 1.921875zm4.810547 0l-2.515625 -6.21875l1.734375 0l1.171875 3.171875l0.34375 1.0625q0.125 -0.40625 0.15625 -0.53125q0.09375 -0.265625 0.1875 -0.53125l1.171875 -3.171875l1.703125 0l-2.46875 6.21875l-1.484375 0zm4.955078 -7.0625l0 -1.53125l1.65625 0l0 1.53125l-1.65625 0zm0 7.0625l0 -6.21875l1.65625 0l0 6.21875l-1.65625 0zm8.755859 -4.390625l-1.609375 0.296875q-0.09375 -0.484375 -0.390625 -0.71875q-0.28125 -0.25 -0.734375 -0.25q-0.625 0 -1.0 0.421875q-0.359375 0.421875 -0.359375 1.421875q0 1.109375 0.375 1.5625q0.375 0.453125 1.0 0.453125q0.46875 0 0.765625 -0.265625q0.296875 -0.265625 0.421875 -0.921875l1.625 0.28125q-0.25 1.109375 -0.96875 1.6875q-0.71875 0.5625 -1.921875 0.5625q-1.359375 0 -2.171875 -0.859375q-0.8125 -0.859375 -0.8125 -2.390625q0 -1.53125 0.8125 -2.390625q0.8125 -0.859375 2.203125 -0.859375q1.140625 0 1.8125 0.484375q0.671875 0.484375 0.953125 1.484375zm4.861328 2.40625l1.640625 0.28125q-0.3125 0.90625 -1.0 1.375q-0.6875 0.46875 -1.703125 0.46875q-1.625 0 -2.40625 -1.0625q-0.625 -0.84375 -0.625 -2.140625q0 -1.546875 0.8125 -2.421875q0.8125 -0.875 2.046875 -0.875q1.390625 0 2.1875 0.921875q0.8125 0.90625 0.765625 2.796875l-4.125 0q0.03125 0.734375 0.40625 1.140625q0.375 0.40625 0.953125 0.40625q0.375 0 0.640625 -0.203125q0.265625 -0.21875 0.40625 -0.6875zm0.09375 -1.65625q-0.015625 -0.71875 -0.375 -1.09375q-0.34375 -0.375 -0.859375 -0.375q-0.53125 0 -0.890625 0.390625q-0.34375 0.40625 -0.34375 1.078125l2.46875 0zm2.3925781 1.859375l1.65625 -0.25q0.109375 0.484375 0.421875 0.734375q0.328125 0.25 0.90625 0.25q0.640625 0 0.953125 -0.234375q0.21875 -0.171875 0.21875 -0.4375q0 -0.1875 -0.109375 -0.3125q-0.125 -0.125 -0.546875 -0.21875q-2.0 -0.4375 -2.53125 -0.796875q-0.734375 -0.515625 -0.734375 -1.40625q0 -0.8125 0.625 -1.359375q0.640625 -0.546875 1.984375 -0.546875q1.28125 0 1.90625 0.421875q0.625 0.40625 0.859375 1.21875l-1.5625 0.28125q-0.09375 -0.359375 -0.375 -0.546875q-0.28125 -0.203125 -0.796875 -0.203125q-0.640625 0 -0.921875 0.1875q-0.1875 0.125 -0.1875 0.328125q0 0.1875 0.15625 0.3125q0.21875 0.15625 1.53125 0.453125q1.328125 0.296875 1.84375 0.734375q0.515625 0.4375 0.515625 1.21875q0 0.859375 -0.71875 1.484375q-0.703125 0.609375 -2.109375 0.609375q-1.265625 0 -2.015625 -0.515625q-0.734375 -0.515625 -0.96875 -1.40625zm10.6015625 1.78125l0 -8.59375l2.78125 0q1.578125 0 2.0625 0.125q0.734375 0.203125 1.234375 0.859375q0.5 0.640625 0.5 1.65625q0 0.796875 -0.296875 1.34375q-0.28125 0.53125 -0.71875 0.84375q-0.4375 0.296875 -0.90625 0.40625q-0.609375 0.125 -1.796875 0.125l-1.125 0l0 3.234375l-1.734375 0zm1.734375 -7.140625l0 2.4375l0.953125 0q1.015625 0 1.359375 -0.125q0.359375 -0.140625 0.546875 -0.421875q0.203125 -0.296875 0.203125 -0.671875q0 -0.46875 -0.28125 -0.765625q-0.28125 -0.3125 -0.703125 -0.390625q-0.296875 -0.0625 -1.234375 -0.0625l-0.84375 0zm6.2539062 7.140625l0 -8.59375l1.65625 0l0 8.59375l-1.65625 0zm4.5683594 -4.328125l-1.5 -0.265625q0.25 -0.90625 0.859375 -1.328125q0.625 -0.4375 1.84375 -0.4375q1.09375 0 1.625 0.265625q0.546875 0.25 0.765625 0.65625q0.21875 0.390625 0.21875 1.46875l-0.015625 1.921875q0 0.828125 0.078125 1.21875q0.078125 0.375 0.296875 0.828125l-1.625 0q-0.0625 -0.171875 -0.15625 -0.484375q-0.046875 -0.15625 -0.0625 -0.203125q-0.421875 0.421875 -0.90625 0.625q-0.46875 0.203125 -1.015625 0.203125q-0.96875 0 -1.53125 -0.515625q-0.546875 -0.53125 -0.546875 -1.328125q0 -0.53125 0.25 -0.9375q0.265625 -0.40625 0.71875 -0.625q0.453125 -0.234375 1.3125 -0.390625q1.140625 -0.21875 1.59375 -0.40625l0 -0.15625q0 -0.484375 -0.234375 -0.6875q-0.234375 -0.203125 -0.890625 -0.203125q-0.4375 0 -0.6875 0.171875q-0.234375 0.171875 -0.390625 0.609375zm2.203125 1.34375q-0.3125 0.09375 -1.0 0.25q-0.6875 0.140625 -0.90625 0.28125q-0.3125 0.234375 -0.3125 0.578125q0 0.34375 0.25 0.609375q0.265625 0.25 0.65625 0.25q0.453125 0 0.859375 -0.296875q0.296875 -0.21875 0.390625 -0.546875q0.0625 -0.203125 0.0625 -0.796875l0 -0.328125zm6.095703 -3.234375l0 1.3125l-1.125 0l0 2.5q0 0.765625 0.03125 0.890625q0.03125 0.125 0.140625 0.21875q0.125 0.078125 0.28125 0.078125q0.234375 0 0.65625 -0.171875l0.140625 1.28125q-0.5625 0.25 -1.296875 0.25q-0.4375 0 -0.796875 -0.140625q-0.359375 -0.15625 -0.53125 -0.390625q-0.15625 -0.25 -0.234375 -0.640625q-0.046875 -0.296875 -0.046875 -1.171875l0 -2.703125l-0.75 0l0 -1.3125l0.75 0l0 -1.234375l1.65625 -0.96875l0 2.203125l1.125 0zm0.41796875 0l0.921875 0l0 -0.46875q0 -0.796875 0.15625 -1.171875q0.171875 -0.390625 0.609375 -0.625q0.453125 -0.25 1.140625 -0.25q0.703125 0 1.375 0.203125l-0.21875 1.15625q-0.390625 -0.09375 -0.75 -0.09375q-0.359375 0 -0.515625 0.171875q-0.15625 0.15625 -0.15625 0.640625l0 0.4375l1.234375 0l0 1.296875l-1.234375 0l0 4.921875l-1.640625 0l0 -4.921875l-0.921875 0l0 -1.296875zm4.3398438 3.015625q0 -0.8125 0.40625 -1.578125q0.40625 -0.78125 1.140625 -1.171875q0.734375 -0.40625 1.65625 -0.40625q1.40625 0 2.3125 0.921875q0.90625 0.90625 0.90625 2.3125q0 1.40625 -0.921875 2.34375q-0.90625 0.921875 -2.28125 0.921875q-0.859375 0 -1.640625 -0.390625q-0.765625 -0.390625 -1.171875 -1.125q-0.40625 -0.75 -0.40625 -1.828125zm1.6875 0.09375q0 0.921875 0.4375 1.421875q0.4375 0.484375 1.078125 0.484375q0.65625 0 1.078125 -0.484375q0.4375 -0.5 0.4375 -1.4375q0 -0.90625 -0.4375 -1.390625q-0.421875 -0.5 -1.078125 -0.5q-0.640625 0 -1.078125 0.5q-0.4375 0.484375 -0.4375 1.40625zm7.595703 3.109375l-1.640625 0l0 -6.21875l1.53125 0l0 0.875q0.390625 -0.625 0.703125 -0.8125q0.3125 -0.203125 0.703125 -0.203125q0.5625 0 1.09375 0.3125l-0.515625 1.421875q-0.421875 -0.265625 -0.765625 -0.265625q-0.359375 0 -0.59375 0.203125q-0.234375 0.1875 -0.375 0.6875q-0.140625 0.484375 -0.140625 2.078125l0 1.921875zm2.9667969 -6.21875l1.515625 0l0 0.84375q0.828125 -0.984375 1.953125 -0.984375q0.59375 0 1.03125 0.25q0.4375 0.234375 0.71875 0.734375q0.40625 -0.5 0.875 -0.734375q0.484375 -0.25 1.03125 -0.25q0.671875 0 1.140625 0.28125q0.484375 0.265625 0.71875 0.8125q0.171875 0.390625 0.171875 1.28125l0 3.984375l-1.640625 0l0 -3.5625q0 -0.921875 -0.171875 -1.1875q-0.234375 -0.359375 -0.703125 -0.359375q-0.34375 0 -0.65625 0.21875q-0.296875 0.203125 -0.4375 0.609375q-0.140625 0.40625 -0.140625 1.296875l0 2.984375l-1.640625 0l0 -3.40625q0 -0.90625 -0.09375 -1.171875q-0.078125 -0.265625 -0.265625 -0.390625q-0.1875 -0.140625 -0.5 -0.140625q-0.375 0 -0.6875 0.21875q-0.296875 0.203125 -0.4375 0.59375q-0.125 0.375 -0.125 1.265625l0 3.03125l-1.65625 0l0 -6.21875z" fill-rule="nonzero"/></g></svg>